<?xml version="1.0" encoding="iso-8859-1"?>
<!-- Generator: Adobe Illustrator 19.0.0, SVG Export Plug-In . SVG Version: 6.00 Build 0)  -->
<svg version="1.1" id="Capa_1" xmlns="http://www.w3.org/2000/svg" xmlns:xlink="http://www.w3.org/1999/xlink" x="0px" y="0px"
	 viewBox="0 0 60 60" style="enable-background:new 0 0 60 60;" xml:space="preserve">
<g>
	<path d="M59,0H1C0.4,0,0,0.4,0,1v58c0,0.6,0.4,1,1,1h58c0.6,0,1-0.4,1-1V1C60,0.4,59.6,0,59,0z M22,58v-6h9v-2H21c-0.6,0-1,0.4-1,1
		v7H2V45h36c0.6,0,1-0.4,1-1V30h-2v13H18V32h-2v11H2V14h20v11H8v2h15c0.6,0,1-0.4,1-1V14h15v-2H2V2h43v7c0,0.6,0.4,1,1,1h6V8h-5V2
		h11v20H42v2h16v14H48c-0.6,0-1,0.4-1,1v16h2V40h9v18H22z"/>
</g>
<g>
</g>
<g>
</g>
<g>
</g>
<g>
</g>
<g>
</g>
<g>
</g>
<g>
</g>
<g>
</g>
<g>
</g>
<g>
</g>
<g>
</g>
<g>
</g>
<g>
</g>
<g>
</g>
<g>
</g>
</svg>
