<?xml version="1.0" encoding="iso-8859-1"?>
<!-- Generator: Adobe Illustrator 19.0.0, SVG Export Plug-In . SVG Version: 6.00 Build 0)  -->
<svg version="1.1" id="Capa_1" xmlns="http://www.w3.org/2000/svg" xmlns:xlink="http://www.w3.org/1999/xlink" x="0px" y="0px"
	 viewBox="0 0 512 512" style="enable-background:new 0 0 512 512;" xml:space="preserve">
<g>
	<g>
		<path d="M338.487,185.674c-38.777-38.776-101.873-38.777-140.651,0c-20.247,20.248-30.786,48.26-28.915,76.854
			c0.36,5.511,5.132,9.687,10.631,9.326c5.511-0.36,9.687-5.121,9.326-10.631c-1.495-22.849,6.925-45.23,23.1-61.406
			c30.98-30.98,81.387-30.979,112.366,0c20.748,20.748,28.364,51.104,19.876,79.223c-1.596,5.287,1.396,10.867,6.684,12.463
			c0.963,0.291,1.936,0.429,2.894,0.429c4.294,0,8.264-2.789,9.569-7.113C373.989,249.632,364.455,211.642,338.487,185.674z"/>
	</g>
</g>
<g>
	<g>
		<path d="M338.507,312.207l-0.059-0.058c-3.921-3.888-10.224-3.833-14.113,0.089c-3.889,3.921-3.833,10.282,0.089,14.171
			c1.95,1.934,4.496,2.899,7.041,2.899c2.574,0,5.146-0.987,7.102-2.959C342.456,322.428,342.429,316.096,338.507,312.207z"/>
	</g>
</g>
<g>
	<g>
		<path d="M268.161,379.196c-5.523,0-10,4.477-10,10v30.317c0,5.523,4.477,10,10,10s10-4.477,10-10v-30.317
			C278.161,383.673,273.684,379.196,268.161,379.196z"/>
	</g>
</g>
<g>
	<g>
		<path d="M268.161,82.487c-5.523,0-10,4.477-10,10v30.317c0,5.523,4.477,10,10,10s10-4.477,10-10V92.487
			C278.161,86.964,273.684,82.487,268.161,82.487z"/>
	</g>
</g>
<g>
	<g>
		<path d="M479.989,0h-344c-5.523,0-10,4.477-10,10v131.318c-0.205,0.173-0.409,0.349-0.604,0.541l-63.223,62.735
			c-25.518,25.32-40.152,60.459-40.152,96.407V502c0,5.523,4.477,10,10,10s10-4.477,10-10V301.001
			c0-30.654,12.48-60.619,34.239-82.21l49.739-49.355v172.201c-1.574,0.244-3.172,0.384-4.787,0.384
			c-3.396,0-6.159-2.763-6.159-6.159v-10.383c0-5.523-4.477-10-10-10c-5.523,0-10,4.477-10,10v10.383
			c0,14.424,11.735,26.159,26.159,26.159c18.11,0,35.109-9.67,44.363-25.236l17.739-29.837c4.555-7.661,14.14-10.726,22.293-7.129
			c8.883,3.917,12.941,14.339,9.045,23.232l-31.673,72.301c-0.368,0.839-0.618,1.725-0.745,2.633l-0.868,6.228
			c-2.401,17.232-13.229,31.954-28.963,39.378c-3.5,1.651-5.732,5.174-5.732,9.043V502c0,5.523,4.477,10,10,10H479.99
			c5.523,0,10-4.477,10-10V10C489.989,4.477,485.512,0,479.989,0z M145.99,20h42.609c-4.084,21.526-21.083,38.526-42.609,42.61V20z
			 M166.661,491.999V458.65c18.74-10.996,31.468-29.892,34.504-51.678l0.677-4.86l24.475-55.869
			c0.038,0.018,0.073,0.041,0.112,0.059c13.091,6.048,27.441,9.103,41.805,9.103c11.123,0,22.252-1.831,32.81-5.521
			c5.213-1.822,7.962-7.526,6.14-12.74c-1.822-5.213-7.525-7.966-12.74-6.14c-19.334,6.758-41.069,5.718-59.627-2.857
			c-0.21-0.097-0.424-0.175-0.637-0.256c6.09-18.209-2.616-38.478-20.513-46.371c-17.396-7.672-37.84-1.132-47.555,15.209
			l-17.739,29.836c-0.72,1.212-1.519,2.364-2.385,3.454V82.862C178.561,78.413,204.402,52.573,208.85,20h118.276
			c4.449,32.573,30.29,58.413,62.862,62.862v346.275c-32.573,4.449-58.413,30.289-62.862,62.862H166.661z M389.989,492h-42.61
			c4.084-21.527,21.084-38.526,42.61-42.61V492z M389.989,62.61c-21.526-4.084-38.526-21.083-42.61-42.61h42.61V62.61z M429.989,492
			h-20V20h20V492z M469.989,492h-20V20h20V492z"/>
	</g>
</g>
<g>
	<g>
		<path d="M323.322,246.027h-1.597c-4.024-14.326-16.453-24.794-31.127-24.794c-17.921,0-32.502,15.609-32.502,34.794
			c0,8.157-5.608,14.794-12.502,14.794c-6.894,0-12.502-6.637-12.502-14.794c0-8.158,5.608-14.794,12.502-14.794
			c5.523,0,10-4.477,10-10s-4.477-10-10-10c-14.675,0-27.104,10.469-31.127,24.794h-1.755c-5.523,0-10,4.477-10,10s4.477,10,10,10
			h1.755c4.024,14.326,16.453,24.794,31.127,24.794c17.922,0,32.502-15.608,32.502-34.794c0-8.158,5.608-14.794,12.502-14.794
			c6.894,0,12.502,6.637,12.502,14.794c0,8.157-5.608,14.794-12.502,14.794c-5.523,0-10,4.477-10,10s4.477,10,10,10
			c14.675,0,27.104-10.468,31.127-24.794h1.597c5.523,0,10-4.477,10-10S328.845,246.027,323.322,246.027z"/>
	</g>
</g>
<g>
</g>
<g>
</g>
<g>
</g>
<g>
</g>
<g>
</g>
<g>
</g>
<g>
</g>
<g>
</g>
<g>
</g>
<g>
</g>
<g>
</g>
<g>
</g>
<g>
</g>
<g>
</g>
<g>
</g>
</svg>
